<svg width="215" height="35" fill="none" xmlns="http://www.w3.org/2000/svg"><path d="M23.44 24.064h5.797c-1.15 6.394-6.072 10.534-13.386 10.534-4.83 0-8.648-1.564-11.362-4.692C1.775 26.732.395 22.638.395 17.578s1.38-9.154 4.094-12.282C7.249 2.122 11.067.558 15.897.558c3.45 0 6.302.874 8.602 2.668 2.3 1.748 3.772 4.094 4.37 7.038h-5.796c-1.012-3.128-3.404-4.692-7.176-4.692-3.22 0-5.658 1.15-7.36 3.404s-2.53 5.152-2.53 8.602c0 3.496.828 6.394 2.484 8.648 1.702 2.254 4.14 3.358 7.36 3.358 4.002 0 6.716-2.024 7.59-5.52zm33.974-9.568V1.156h5.52V34h-5.52V19.648H40.992V34h-5.52V1.156h5.52v13.34h16.422zM71.1 34V1.156h5.52V34H71.1zm35.177-9.936h5.796c-1.15 6.394-6.072 10.534-13.386 10.534-4.83 0-8.648-1.564-11.362-4.692-2.714-3.174-4.094-7.268-4.094-12.328s1.38-9.154 4.094-12.282C90.085 2.122 93.903.558 98.733.558c3.45 0 6.302.874 8.602 2.668 2.3 1.748 3.772 4.094 4.37 7.038h-5.796c-1.012-3.128-3.404-4.692-7.176-4.692-3.22 0-5.658 1.15-7.36 3.404s-2.53 5.152-2.53 8.602c0 3.496.828 6.394 2.484 8.648 1.702 2.254 4.14 3.358 7.36 3.358 4.002 0 6.716-2.024 7.59-5.52zM145.862 34h-5.658l-3.036-9.43H123.69L120.7 34h-5.52l10.902-32.844h8.832L145.862 34zm-14.49-27.462h-1.978l-4.14 13.11h10.304l-4.186-13.11zm32.399 14.306v-4.692h14.536v3.588c0 7.59-3.956 14.858-14.122 14.858-4.922 0-8.74-1.564-11.454-4.738-2.714-3.174-4.094-7.268-4.094-12.282 0-5.06 1.38-9.154 4.094-12.282 2.76-3.174 6.578-4.738 11.5-4.738 7.038 0 11.822 3.68 13.11 9.568h-5.75c-.92-3.036-3.358-4.554-7.36-4.554-3.266 0-5.75 1.104-7.452 3.358s-2.53 5.106-2.53 8.648.828 6.44 2.53 8.694c1.702 2.254 4.186 3.358 7.452 3.358 5.52 0 8.372-3.312 8.51-8.786h-8.97zm23.641-15.502c2.76-3.174 6.624-4.784 11.546-4.784s8.786 1.61 11.5 4.784c2.76 3.174 4.14 7.268 4.14 12.236 0 4.968-1.38 9.062-4.14 12.236-2.714 3.174-6.578 4.784-11.5 4.784s-8.786-1.61-11.546-4.784c-2.76-3.174-4.14-7.268-4.14-12.236 0-4.968 1.38-9.062 4.14-12.236zm4.002 20.838c1.702 2.254 4.232 3.404 7.544 3.404 3.312 0 5.796-1.15 7.498-3.404s2.53-5.152 2.53-8.602-.828-6.348-2.53-8.602c-1.702-2.254-4.186-3.404-7.498-3.404-3.312 0-5.842 1.15-7.544 3.404s-2.53 5.152-2.53 8.602.828 6.348 2.53 8.602z" fill="#fff"/></svg>