<svg width="226" height="55" fill="none" xmlns="http://www.w3.org/2000/svg"><path d="M.737 55V12.592h15.618l13.51 28.728 13.907-28.728h14.65V55H46.963V27.241L34.082 55h-9.177L12.023 27.241V55H.737zM98.51 38.413l-7.695-17.271-7.467 17.271H98.51zM105.919 55l-3.477-7.866H79.528L76.108 55h-11.8l18.81-42.408h15.733L118.516 55h-12.597zM85.114 9.115L79.072.679h12.654l5.187 8.436h-11.8zM156.515 55l-20.406-19.95V55h-11.742V12.592h11.742v17.442l19.836-17.442h14.934l-22.344 19.437L171.848 55h-15.333zm56.992 0V26.5L188.712 55H176.97V12.592h11.742v28.5l24.795-28.5h11.742V55h-11.742z" fill="#fff"/></svg>