<svg width="258" height="112" fill="none" xmlns="http://www.w3.org/2000/svg"><path d="M24.638 41v-3.52l3.465-.385c.403-.073.642-.165.715-.275.11-.147.165-.422.165-.825V9.705h-.22L11.163 41H.108v-3.52l3.465-.385c.403-.073.642-.165.715-.275.11-.147.165-.422.165-.825V6.185c0-.403-.055-.678-.165-.825-.073-.147-.312-.238-.715-.275L.108 4.7V1.18h15.235V4.7l-3.685.44c-.403.073-.66.165-.77.275-.073.11-.11.367-.11.77v25.74h.22L28.323 1.18h11.55V4.7l-3.685.44c-.403.073-.66.165-.77.275-.073.11-.11.367-.11.77V35.94c0 .44.037.715.11.825.11.11.367.202.77.275l3.685.44V41H24.638zm47.313 0v-3.52l3.465-.385c.404-.073.642-.165.715-.275.11-.147.165-.422.165-.825v-13.09h-17.38V35.94c0 .44.037.715.11.825.11.11.367.202.77.275l3.685.44V41H48.136v-3.52l3.465-.385c.404-.073.642-.165.715-.275.11-.147.165-.422.165-.825V6.185c0-.403-.055-.678-.165-.825-.073-.147-.311-.238-.715-.275L48.136 4.7V1.18h15.345V4.7l-3.685.44c-.403.073-.66.165-.77.275-.073.11-.11.367-.11.77v11.88h17.38V6.185c0-.403-.055-.678-.165-.825-.073-.147-.311-.238-.715-.275L71.951 4.7V1.18h15.125V4.7l-3.465.44c-.403.073-.66.165-.77.275-.073.11-.11.367-.11.77V35.94c0 .44.037.715.11.825.11.11.367.202.77.275l3.465.44V41H71.951zm55.575-2.31c-1.54.99-3.538 1.742-5.995 2.255-2.42.477-4.895.715-7.425.715-3.373 0-6.27-.495-8.69-1.485-2.383-.99-4.345-2.383-5.885-4.18-1.54-1.833-2.676-4.033-3.41-6.6-.696-2.567-1.045-5.408-1.045-8.525 0-2.933.404-5.647 1.21-8.14.844-2.493 2.109-4.638 3.795-6.435 1.687-1.833 3.777-3.263 6.27-4.29 2.53-1.027 5.464-1.54 8.8-1.54 2.384 0 4.657.275 6.82.825 2.2.513 4.015 1.247 5.445 2.2v9.625l-4.675-.33-.935-5.335c-.036-.477-.293-.788-.77-.935a18.058 18.058 0 00-2.86-.715 18.765 18.765 0 00-3.3-.275c-3.996 0-7.186 1.302-9.57 3.905-2.346 2.603-3.52 6.417-3.52 11.44 0 5.28 1.119 9.24 3.355 11.88 2.274 2.603 5.39 3.905 9.35 3.905 1.137 0 2.329-.055 3.575-.165 1.247-.147 2.329-.403 3.245-.77.294-.073.495-.165.605-.275.11-.147.202-.403.275-.77l.88-5.06h4.455v9.075zm19.176-20.35h3.85c1.283 0 2.31-.202 3.08-.605.806-.44 1.503-1.393 2.09-2.86l3.52-8.8c.733-1.87 1.65-3.263 2.75-4.18 1.136-.953 2.786-1.43 4.95-1.43.44.037.935.092 1.485.165.55.037 1.045.092 1.485.165l-.22 4.51a8.736 8.736 0 00-1.595-.165c-1.027 0-1.779.257-2.255.77-.477.477-.899 1.21-1.265 2.2l-2.64 7.315c-.587 1.613-1.357 2.768-2.31 3.465-.954.697-1.834 1.173-2.64 1.43v.055a4.37 4.37 0 011.375.66c.44.293.861.678 1.265 1.155.403.44.806.99 1.21 1.65.403.66.861 1.467 1.375 2.42l4.95 9.24c.256.44.476.77.66.99.22.183.531.312.935.385l3.575.605V41h-10.065a42.934 42.934 0 00-1.705-3.85 78.073 78.073 0 00-1.925-3.905 64.494 64.494 0 00-1.87-3.575 603.705 603.705 0 00-1.485-2.86c-.404-.733-.789-1.338-1.155-1.815-.367-.477-.752-.843-1.155-1.1a3.6 3.6 0 00-1.43-.605c-.514-.11-1.137-.165-1.87-.165h-2.97V35.94c0 .44.036.715.11.825.11.11.366.202.77.275l3.685.44V41h-15.345v-3.52l3.465-.385c.403-.073.641-.183.715-.33.11-.147.165-.422.165-.825V6.185c0-.403-.055-.678-.165-.825-.074-.147-.312-.238-.715-.275l-3.465-.385V1.18h15.345V4.7l-3.685.44c-.404.073-.66.165-.77.275-.074.11-.11.367-.11.77V18.34zM204.559 41v-3.52l3.465-.385c.403-.073.642-.165.715-.275.11-.147.165-.422.165-.825V9.705h-.22L191.084 41h-11.055v-3.52l3.465-.385c.403-.073.642-.165.715-.275.11-.147.165-.422.165-.825V6.185c0-.403-.055-.678-.165-.825-.073-.147-.312-.238-.715-.275l-3.465-.385V1.18h15.235V4.7l-3.685.44c-.403.073-.66.165-.77.275-.073.11-.11.367-.11.77v25.74h.22L208.244 1.18h11.55V4.7l-3.685.44c-.403.073-.66.165-.77.275-.073.11-.11.367-.11.77V35.94c0 .44.037.715.11.825.11.11.367.202.77.275l3.685.44V41h-15.235zm23.498 0v-3.52l3.465-.385c.404-.073.642-.165.715-.275.11-.147.165-.422.165-.825V6.24c0-.403-.055-.678-.165-.825-.073-.147-.311-.238-.715-.275l-3.465-.385V1.18h28.27v9.9l-4.675-.22-.77-4.235c-.11-.477-.421-.715-.935-.715h-11.11v12.65h13.97v4.785h-13.97v12.98h12.32c.294 0 .495-.018.605-.055.11-.073.202-.257.275-.55l.88-4.84h4.62V41h-29.48zM34.042 111v-3.52l4.18-.495-8.525-12.21-8.36 12.21 4.125.495V111H11.657v-3.41l3.025-.605c.55-.147 1.027-.495 1.43-1.045l10.45-14.74-10.56-14.96c-.183-.293-.366-.495-.55-.605-.183-.147-.44-.257-.77-.33l-2.695-.605.55-3.52h14.465v3.52l-4.235.495 7.975 11.715 8.25-11.715-4.125-.495.55-3.52h12.595v3.52l-2.53.605c-.33.073-.586.202-.77.385a3.679 3.679 0 00-.605.66L33.932 90.43l11.275 15.51c.184.293.367.513.55.66.184.11.44.202.77.275l2.86.605V111H34.042zm37.758.66c-3.227 0-6.013-.513-8.36-1.54-2.347-1.027-4.29-2.438-5.83-4.235-1.503-1.833-2.622-4.015-3.355-6.545-.697-2.567-1.045-5.353-1.045-8.36 0-2.933.403-5.647 1.21-8.14.843-2.493 2.072-4.657 3.685-6.49 1.613-1.833 3.63-3.263 6.05-4.29 2.42-1.063 5.225-1.595 8.415-1.595 3.19 0 5.94.532 8.25 1.595 2.31 1.027 4.198 2.438 5.665 4.235 1.503 1.797 2.603 3.905 3.3 6.325.733 2.42 1.1 5.005 1.1 7.755 0 3.227-.403 6.16-1.21 8.8-.77 2.603-1.943 4.84-3.52 6.71-1.577 1.833-3.575 3.263-5.995 4.29-2.383.99-5.17 1.485-8.36 1.485zm.22-5.335c1.833 0 3.502-.293 5.005-.88a9.56 9.56 0 003.85-2.75c1.063-1.247 1.888-2.842 2.475-4.785.623-1.98.935-4.327.935-7.04 0-5.097-1.045-8.873-3.135-11.33-2.09-2.493-4.968-3.74-8.635-3.74-1.87 0-3.575.312-5.115.935s-2.878 1.577-4.015 2.86c-1.1 1.247-1.962 2.823-2.585 4.73-.623 1.87-.935 4.07-.935 6.6 0 5.317 1.1 9.222 3.3 11.715 2.237 2.457 5.188 3.685 8.855 3.685zM119.54 111v-3.52l3.245-.385c.404-.073.642-.165.715-.275.11-.147.165-.422.165-.825V75.91H112.39c.074 3.777.055 7.535-.055 11.275-.11 3.703-.366 7.04-.77 10.01-.256 2.017-.696 3.887-1.32 5.61-.586 1.687-1.43 3.172-2.53 4.455-1.063 1.247-2.401 2.273-4.015 3.08-1.613.77-3.575 1.247-5.885 1.43l-1.1-5.665c1.394-.22 2.567-.55 3.52-.99a7.11 7.11 0 002.53-1.87c.697-.807 1.265-1.797 1.705-2.97.44-1.173.789-2.603 1.045-4.29.184-.99.33-2.182.44-3.575.147-1.43.257-2.988.33-4.675.074-1.687.129-3.483.165-5.39.037-1.907.037-3.85 0-5.83 0-.513-.055-.843-.165-.99-.11-.183-.366-.312-.77-.385l-3.575-.44v-3.52h32.725v3.52l-3.685.44c-.366.073-.605.183-.715.33-.11.147-.165.422-.165.825v29.645c0 .44.037.715.11.825.11.11.367.202.77.275l3.685.44V111H119.54zm54.583 0v-3.52l4.565-.385c.403-.037.642-.128.715-.275.11-.147.165-.422.165-.825V80.97h-.165l-9.57 21.23h-7.15l-9.625-21.505h-.11v25.245c0 .44.037.733.11.88.11.11.367.183.77.22l4.73.44V111h-15.51v-3.52l3.465-.385c.403-.037.642-.128.715-.275.11-.147.165-.422.165-.825V76.24c0-.403-.055-.678-.165-.825-.073-.147-.312-.238-.715-.275l-3.465-.385V71.18h12.375l11.275 25.74h.165l11.44-25.74h11.825v3.52l-3.685.44c-.403.073-.66.165-.77.275-.073.11-.11.367-.11.77v29.81c0 .367.055.623.165.77.11.147.348.238.715.275l3.685.44V111h-16.005zm39.875-4.785c1.21 0 2.329-.11 3.355-.33 1.027-.22 1.907-.623 2.64-1.21.77-.587 1.357-1.357 1.76-2.31.44-.99.66-2.218.66-3.685 0-2.457-.715-4.198-2.145-5.225-1.43-1.027-3.318-1.54-5.665-1.54h-5.39v14.3h4.785zm-15.73-35.035h17.215v3.52l-5.335.495c-.403.037-.66.128-.77.275-.11.11-.165.385-.165.825v11h6.71c2.42 0 4.455.275 6.105.825 1.687.55 3.044 1.32 4.07 2.31a8.19 8.19 0 012.255 3.52c.477 1.357.715 2.86.715 4.51 0 2.237-.366 4.162-1.1 5.775-.696 1.577-1.686 2.878-2.97 3.905-1.246.99-2.75 1.723-4.51 2.2-1.76.44-3.685.66-5.775.66h-16.225v-3.52l3.465-.385c.404-.073.642-.165.715-.275.11-.147.165-.422.165-.825v-29.92c0-.403-.055-.642-.165-.715-.11-.11-.348-.202-.715-.275l-3.685-.385v-3.52zM230.774 111v-3.52l4.015-.385c.404-.037.642-.128.715-.275.11-.147.165-.422.165-.825v-29.81c0-.403-.055-.678-.165-.825-.073-.147-.311-.238-.715-.275l-4.015-.385v-3.52h16.445v3.52l-4.235.44c-.403.073-.66.165-.77.275-.073.11-.11.367-.11.77v29.755c0 .44.037.715.11.825.11.11.367.202.77.275l4.235.44V111h-16.445z" fill="#fff"/></svg>