<svg width="265" height="49" fill="none" xmlns="http://www.w3.org/2000/svg"><path fill-rule="evenodd" clip-rule="evenodd" d="M103.855.1c-1.17.112-2.976.376-3.58.523l-.64.156V38.16h4.368l.039-7.72.039-7.719 1.884-.06c3.509-.114 5.977-1.073 8.065-3.133 1.83-1.807 2.7-3.489 3.166-6.119.768-4.339-.303-8.353-2.856-10.706-2.258-2.08-6.076-3.03-10.485-2.605zM.102.246C.046.303 0 8.856 0 19.254v18.907h4.522V4.01h10.4v34.151h4.524l-.039-18.969L19.37.224 9.786.186C4.516.165.158.193.102.247zM108.829 3.97c1.559.5 2.699 1.525 3.375 3.036.523 1.168.695 2.169.695 4.042 0 5.107-2.551 7.975-7.104 7.986-.807.002-1.541-.041-1.629-.095-.239-.145-.223-14.872.017-15.018.6-.365 3.446-.335 4.646.05zm-77.627 6.525c-1.488.23-2.816.606-3.893 1.1-1.137.52-1.246.606-1.156.912.397 1.35.905 2.785.973 2.746 1.468-.834 3.033-1.29 4.435-1.292 1.465-.002 2.156.241 2.983 1.052.9.883 1.287 2.045 1.425 4.277l.099 1.6-1.416.094c-5.332.35-9.253 3.258-10.176 7.547-.33 1.536-.217 4.016.247 5.368.695 2.029 2.126 3.596 3.916 4.29 1.1.425 3.055.459 4.185.071 1.031-.353 2.404-1.386 2.975-2.238.249-.371.498-.676.553-.678.056-.002.145.448.198.999.053.551.132 1.186.175 1.41l.078.409h3.823l-.04-5.234c-.109-14.376-.134-15.249-.464-16.519-.516-1.986-1.361-3.469-2.514-4.415-1.439-1.18-4.24-1.835-6.406-1.5zm23.986.052c-1.574.326-3.068 1.431-4.112 3.041l-.578.891v-.683a28.798 28.798 0 00-.1-1.823l-.098-1.14-1.975.041-1.975.042.044.52c.024.285.081 8.854.127 19.042L46.603 49h4.341l.04-6.77.04-6.77.604.868a5.179 5.179 0 004.739 2.235c4.007-.331 6.813-3.82 7.785-9.682.355-2.137.362-6.768.015-8.91-.795-4.904-2.726-8.094-5.535-9.146-.895-.335-2.534-.468-3.444-.28zm71.941.07c-3.867.828-6.549 4.563-7.464 10.395-.27 1.723-.235 6.073.064 7.802.75 4.335 2.63 7.324 5.505 8.746 2.248 1.113 6.351 1.183 9.1.156 1.331-.497 1.276-.369.908-2.086-.178-.833-.345-1.536-.373-1.563-.027-.027-.499.112-1.047.308-2.224.795-4.704.798-6.288.007-1.474-.735-2.683-2.488-3.231-4.684-.254-1.018-.548-3.256-.55-4.194l-.001-.557h12.794l.11-.705c.18-1.16-.181-5.269-.609-6.923-1.008-3.895-3.088-6.227-6.03-6.76-1.119-.204-1.725-.192-2.888.058zm18.253-.067c-1.736.266-4.519 1.291-4.823 1.776-.079.125.546 2.297.777 2.7.032.057.48-.091.997-.328 2.914-1.336 5.923-1.181 7.314.375.695.779.935 1.49.935 2.772 0 2.652-2.518 4.578-5.985 4.578h-1.099V25.5l1.62.105c2.48.16 3.782.555 4.959 1.505 1.47 1.186 1.941 3.529 1.065 5.288-1.324 2.656-5.171 3.587-9.04 2.188a104.5 104.5 0 00-1.471-.524c-.175-.057-.342.267-.716 1.39-.268.804-.487 1.5-.487 1.547 0 .177 1.818.874 3.101 1.19 1.589.39 4.825.462 6.32.14 1.908-.412 3.913-1.404 5.095-2.521 1.659-1.567 2.484-4.129 2.065-6.407-.497-2.7-2.323-4.53-5.427-5.442-.621-.183-1.019-.336-.884-.34.136-.005.8-.281 1.476-.614 2.867-1.414 4.276-3.922 3.823-6.807-.423-2.69-2.184-4.593-5.017-5.423-1.015-.297-3.374-.412-4.598-.225zm68.887.02c-2.457.462-4.549 2.252-5.955 5.097-1.289 2.609-1.807 5.2-1.809 9.038-.001 3.85.632 6.873 1.916 9.15.777 1.377 2.569 3.099 3.85 3.698 1.914.895 4.327 1.133 6.944.684 1.239-.213 2.851-.71 3.212-.99.256-.198-.417-3.18-.71-3.138-.118.017-.602.167-1.075.334-1.891.666-4.052.716-5.652.13-2.406-.882-3.909-3.891-4.158-8.325l-.073-1.298 6.427-.039 6.427-.038.048-1.634c.252-8.573-3.592-13.758-9.392-12.669zm44.48.202c-4.165 1.033-7.181 4.839-8.174 10.314-.345 1.903-.338 5.64.016 7.639.952 5.388 3.574 8.614 7.745 9.528 1.596.35 3.933.227 5.425-.285.609-.21 1.137-.41 1.172-.444.085-.084-.413-3.117-.534-3.255-.051-.059-.533.03-1.071.195-1.334.413-2.964.407-4.104-.013-2.653-.978-4.251-4.157-4.441-8.836-.221-5.437 1.397-9.597 4.252-10.935 1.135-.532 2.699-.582 4.163-.133.522.16.986.255 1.031.211.045-.044.262-.826.482-1.738.293-1.216.353-1.689.226-1.771-.938-.603-4.554-.882-6.188-.477zm-189.311.168c-.056.055-.1 6.202-.1 13.66v13.562h4.371V25.837h.349c.192 0 .749.073 1.237.162 2.73.497 4.04 2.22 5.406 7.113.597 2.135 1.162 3.913 1.524 4.789.096.231.357.26 2.369.26 2.093 0 2.253-.02 2.153-.26-.39-.943-1.102-3.158-1.738-5.415-.94-3.332-1.487-4.726-2.391-6.091-1.065-1.607-2.176-2.466-3.965-3.066l-.712-.239 4.214-5.998c2.319-3.3 4.215-6.056 4.215-6.125 0-.07-1.08-.127-2.4-.127h-2.402l-3.64 5.94c-2.763 4.505-3.712 5.939-3.93 5.939-.28 0-.29-.186-.29-5.94V10.84h-2.085c-1.147 0-2.13.045-2.185.1zm91.545 13.562v13.66h4.535l.459-1.002c2.291-5 5.911-13.936 7.232-17.853.604-1.793 1.111-3.245 1.126-3.227.015.018-.033.868-.106 1.888-.072 1.021-.176 5.982-.229 11.025l-.098 9.169h4.114V10.84h-2.256c-1.994 0-2.272.03-2.395.26-.175.326-7.344 18.633-8.022 20.485-.275.753-.524 1.346-.552 1.318-.028-.028.019-1.98.105-4.339.085-2.358.156-7.31.156-11.006l.001-6.719h-4.07V24.5zm26.154-13.475c-.035.102-.092 2.925-.126 6.273-.069 6.602-.176 7.78-.996 10.966-.509 1.978-1.139 3.608-2.016 5.219l-.647 1.188-.948.044-.947.045.107 5.226c.059 2.875.137 5.277.173 5.338.036.061.797.111 1.692.111h1.628l.096-1.002c.053-.551.096-1.476.097-2.055.001-.58.045-1.766.099-2.636l.099-1.582h14.109l.076.482c.041.266.119 1.853.172 3.527.053 1.674.128 3.094.166 3.155.091.146 3.178.145 3.27 0 .039-.063.12-2.468.181-5.346l.111-5.233h-2.304V10.84h-7.014c-5.477 0-7.028.04-7.078.186zM228.361 24.5v13.668l2.223-.041 2.223-.041.04-5.977.039-5.976h7.986V38.16h4.522V10.832l-2.224.041-2.223.042-.04 5.753-.039 5.754h-7.982l-.039-5.754-.04-5.753-2.223-.042-2.223-.04V24.5zm-98.655-10.24c1.527.914 2.426 2.96 2.594 5.896l.087 1.522h-8.484l.003-.705c.008-1.772.957-4.584 1.971-5.847.991-1.232 2.608-1.598 3.829-.866zm86.885-.086c1.56.794 2.526 2.963 2.797 6.28l.1 1.224h-8.651l.105-1.05c.409-4.09 2.448-7.04 4.66-6.74.319.043.765.171.989.286zm-159.97.387c1.807.862 2.89 3.466 3.249 7.822.207 2.51.003 5.88-.476 7.85-.747 3.078-2.153 4.654-4.15 4.654-1.831 0-3.187-1.38-3.946-4.013-.243-.845-.275-1.578-.275-6.374 0-5.82.04-6.186.861-7.791 1.09-2.133 2.975-2.988 4.737-2.148zM196.858 24.5v10.096h-4.522c-2.488 0-4.522-.035-4.522-.079s.168-.407.374-.808c.661-1.284 1.293-2.988 1.737-4.684.769-2.94.929-4.477 1.011-9.76l.076-4.862h5.846V24.5zM36.173 26.913c-.003 3.267-.159 4.61-.657 5.682-1.475 3.173-5.085 3.441-6.444.48-.317-.691-.357-.997-.357-2.71 0-1.813.026-1.986.434-2.855.683-1.458 2.042-2.561 3.712-3.014.722-.196 2.02-.39 2.825-.421l.49-.02-.003 2.858z" fill="#FCFCFC"/></svg>