<svg width="258" height="44" fill="none" xmlns="http://www.w3.org/2000/svg"><path d="M.751 43V.3h11.59l11.59 26.535h1.525L37.046.3h11.285V43h-7.015V13.11l.61-5.795h-.61L30.031 33.24h-10.98L7.766 7.315h-.61l.61 5.795V43H.751zm58.25-4.026c-3.05-3.131-4.574-6.974-4.574-11.529s1.525-8.377 4.575-11.468c3.09-3.131 6.852-4.697 11.285-4.697 4.432 0 8.174 1.566 11.224 4.697 3.09 3.09 4.636 6.913 4.636 11.468v2.135H60.832c.488 2.562 1.606 4.575 3.355 6.039 1.748 1.464 3.782 2.196 6.1 2.196 2.846 0 5.124-.712 6.832-2.135a8.426 8.426 0 002.013-2.135h6.71c-.854 1.993-1.932 3.68-3.233 5.063-3.335 3.335-7.442 5.002-12.322 5.002-4.433 0-8.195-1.545-11.285-4.636zm2.136-14.579h18.3c-.366-2.033-1.342-3.762-2.928-5.185-1.546-1.423-3.62-2.135-6.222-2.135-2.196 0-4.148.671-5.856 2.013-1.708 1.301-2.806 3.07-3.294 5.307zm32.822 14.762c-2.765-3.01-4.148-6.913-4.148-11.712 0-4.799 1.383-8.682 4.148-11.651 2.806-3.01 6.304-4.514 10.492-4.514 2.644 0 5.063.773 7.259 2.318.936.65 1.769 1.403 2.501 2.257h.305V.3h6.405V43h-6.405v-3.965h-.305a12.434 12.434 0 01-2.501 2.318c-2.155 1.505-4.575 2.257-7.259 2.257-4.188 0-7.686-1.484-10.492-4.453zm5.002-19.398c-1.626 1.79-2.44 4.351-2.44 7.686s.814 5.897 2.44 7.686c1.627 1.79 3.864 2.684 6.71 2.684 2.684 0 4.819-.895 6.405-2.684 1.627-1.83 2.44-4.392 2.44-7.686 0-3.294-.813-5.836-2.44-7.625-1.586-1.83-3.721-2.745-6.405-2.745-2.846 0-5.083.895-6.71 2.684zM128.828 43V.3h18.605c4.92 0 8.885 1.383 11.895 4.148 3.05 2.725 4.575 6.12 4.575 10.187 0 4.067-1.525 7.483-4.575 10.248-3.01 2.725-6.975 4.087-11.895 4.087h-11.59V43h-7.015zm7.015-20.74h11.59c2.968 0 5.225-.671 6.771-2.013 1.586-1.383 2.379-3.253 2.379-5.612s-.793-4.209-2.379-5.551c-1.546-1.383-3.803-2.074-6.771-2.074h-11.59v15.25zm34.962 16.897c-2.765-3.01-4.148-6.913-4.148-11.712 0-4.799 1.383-8.682 4.148-11.651 2.806-3.01 6.303-4.514 10.492-4.514 2.643 0 5.063.773 7.259 2.318.935.65 1.769 1.403 2.501 2.257h.305V11.89h6.405V43h-6.405v-4.27h-.305c-.61.854-1.444 1.667-2.501 2.44-2.196 1.627-4.616 2.44-7.259 2.44-4.189 0-7.686-1.484-10.492-4.453zm5.002-19.398c-1.627 1.79-2.44 4.351-2.44 7.686s.813 5.897 2.44 7.686c1.627 1.79 3.863 2.684 6.71 2.684 2.684 0 4.819-.895 6.405-2.684 1.627-1.83 2.44-4.392 2.44-7.686 0-3.294-.813-5.836-2.44-7.625-1.586-1.83-3.721-2.745-6.405-2.745-2.847 0-5.083.895-6.71 2.684zM205.063 43V11.89h6.405v4.575h.305c.448-.854 1.098-1.667 1.952-2.44 1.871-1.627 4.067-2.44 6.588-2.44h3.66v6.1h-3.965c-2.48 0-4.534.793-6.161 2.379-1.586 1.545-2.379 3.599-2.379 6.161V43h-6.405zm23.769 0V.3h6.405v23.79h4.575l9.455-12.2h7.32l-11.285 14.335L257.502 43h-7.93l-9.455-13.115h-4.88V43h-6.405z" fill="#fff"/></svg>