<svg width="257" height="28" fill="none" xmlns="http://www.w3.org/2000/svg"><path fill-rule="evenodd" clip-rule="evenodd" d="M1.265 27.221c.157.164.333.24.536.24H6.28a.865.865 0 00.61-.24.821.821 0 00.24-.567V15.97c0-.471.167-.711.482-.711h.12c.231 0 .444.134.62.394l7.919 11c.388.538.999.808 1.804.808h5.078c.213 0 .361-.077.444-.24.074-.164.028-.366-.138-.568L13.54 13.23c-.333-.404-.38-.78-.12-1.106l8.02-10.75c.176-.221.231-.413.203-.577-.027-.173-.157-.26-.37-.26H18.12c-.694 0-1.277.289-1.74.837L8.98 11.51c-.194.25-.444.375-.73.375h-.565c-.38 0-.555-.212-.555-.654V1.375a.81.81 0 00-.24-.577.844.844 0 00-.611-.26H.423c-.231 0-.36.087-.398.27-.065.182 0 .404.139.644.564.817.86 1.885.86 3.202v22c0 .202.065.404.24.567zm24.801 0a.77.77 0 00.555.24h4.533a.821.821 0 00.823-.808v-8.307a.77.77 0 01.232-.577c.166-.144.333-.22.536-.22h3.562c2.368 0 4.431-.828 6.226-2.5 1.794-1.664 2.692-3.664 2.692-5.982 0-2.317-.898-4.327-2.692-6.01C40.738 1.376 38.675.539 36.307.539H25.206c-.203 0-.333.087-.398.27-.055.182 0 .404.176.644.564.817.851 1.885.851 3.202v22a.81.81 0 00.231.567zm6.143-13.356c-.157-.134-.231-.326-.231-.605V4.779c0-.26.074-.452.23-.606.167-.135.334-.211.537-.211h2.202c1.129 0 2.054.5 2.803 1.49.74.99 1.11 2.173 1.11 3.586 0 1.414-.37 2.616-1.11 3.577-.75.981-1.674 1.462-2.803 1.462h-2.202a.736.736 0 01-.536-.212zM53.976.827c-.102.192-.102.404.019.625.166.365.259.788.259 1.23 0 .549-.148 1.203-.426 1.972l-8.057 22a.613.613 0 00.064.567c.12.164.306.24.565.24h2.738c.546 0 .907-.269 1.11-.807l2.063-6c.12-.385.38-.587.786-.587h8.298c.49 0 .796.202.925.587l2.063 6c.185.538.565.808 1.11.808h4.82c.231 0 .398-.077.518-.24a.673.673 0 00.074-.568l-9.223-25.23C61.48.836 61.09.537 60.498.537h-6.032a.525.525 0 00-.49.289zm3.46 6.144c.139 0 .231.087.287.25l2.96 8.577c.185.577.019.865-.518.865h-5.67c-.519 0-.676-.288-.473-.865l3.08-8.577c.038-.163.158-.25.334-.25zm37.734 2c.157.327.37.52.648.548.277.048.508-.057.712-.327l1.656-2c.425-.48.49-.913.231-1.279-1.388-1.798-3.145-3.24-5.273-4.307C91.007.538 88.704 0 86.252 0c-4.33 0-7.826 1.308-10.5 3.923C73.07 6.53 71.739 9.894 71.739 14s1.36 7.433 4.107 10.067C78.575 26.692 82.071 28 86.317 28c2.535 0 4.848-.51 6.929-1.52 2.081-1 3.811-2.46 5.199-4.365.324-.48.231-.884-.26-1.23L96.9 19.99c-.37-.269-.796-.201-1.23.202a12.12 12.12 0 01-3.96 3.202c-1.554.789-3.145 1.183-4.764 1.183-2.313 0-4.338-1.01-6.04-3.02-1.721-2.009-2.582-4.518-2.582-7.557 0-3.039.86-5.577 2.59-7.577 1.721-1.99 3.775-3 6.143-3 3.599 0 6.3 1.846 8.113 5.548zm7.308 18.25a.77.77 0 00.555.24h15.634a.823.823 0 00.824-.808v-1.778a.833.833 0 00-.241-.587c-.176-.163-.361-.25-.583-.25h-9.51a.703.703 0 01-.545-.23c-.148-.145-.222-.356-.222-.616V16.27c0-.23.074-.423.222-.586.148-.164.314-.26.545-.26h7.235c.185 0 .36-.067.518-.25a.845.845 0 00.24-.606v-1.72c0-.203-.083-.376-.24-.558-.158-.164-.333-.26-.518-.26h-7.235a.68.68 0 01-.545-.24.846.846 0 01-.222-.597V4.808a.81.81 0 01.231-.587c.166-.163.333-.26.536-.26h6.189c1.055 0 2.137.202 3.256.577.26.106.472.106.62 0 .139-.096.213-.278.204-.548l-.379-2.644c-.084-.538-.389-.808-.926-.808h-16.503c-.204 0-.333.087-.398.27-.055.182 0 .404.176.644.564.817.851 1.885.851 3.202v22a.81.81 0 00.231.567zM139.583.798a.801.801 0 00-.231.577v9.817a.83.83 0 01-.25.597.716.716 0 01-.536.24h-8.132c-.518 0-.786-.27-.786-.837V1.375a.807.807 0 00-.241-.577.774.774 0 00-.592-.26h-5.902c-.203 0-.333.087-.388.27-.056.182 0 .404.176.644.564.817.851 1.885.851 3.202v22a.81.81 0 00.231.567.75.75 0 00.546.24h4.486a.791.791 0 00.592-.24.819.819 0 00.241-.567V16.269c0-.557.268-.846.786-.846h8.132c.203 0 .379.096.536.26.158.163.25.355.25.586v10.385a.81.81 0 00.231.567c.158.164.361.24.62.24h4.413a.834.834 0 00.851-.808V1.376a.82.82 0 00-.25-.577.824.824 0 00-.601-.26h-4.413a.795.795 0 00-.62.26zm26.772 13.067c0 .183-.092.404-.259.702l-8.039 12.087c-.148.202-.203.404-.148.567.047.164.176.24.407.24h3.247c.222 0 .463-.076.74-.24.278-.163.481-.365.611-.567l5.726-8.587c.259-.404.518-.404.777 0l5.172 8.433c.148.27.379.5.693.673.306.202.583.289.824.289h5.411c.259 0 .435-.087.518-.27.074-.182.028-.404-.148-.692l-8.029-12.923c-.204-.27-.296-.51-.278-.692 0-.174.111-.414.315-.731l7.169-10.779c.148-.192.194-.385.12-.567-.092-.183-.222-.27-.407-.27h-2.849c-.823 0-1.397.289-1.73.837l-4.856 7.356c-.278.413-.537.413-.787 0l-4.366-7.183c-.416-.663-.925-1.01-1.517-1.01h-6.356c-.305 0-.481.135-.518.375-.064.24.065.452.37.635.787.462 1.591 1.346 2.406 2.644l5.476 8.962c.204.307.305.548.305.711z" fill="#FCFCFC"/><path fill-rule="evenodd" clip-rule="evenodd" d="M190.269.827c-.102.192-.102.404.018.625.167.365.259.788.259 1.23 0 .549-.148 1.203-.425 1.972l-8.058 22a.613.613 0 00.065.567c.12.164.305.24.564.24h2.739c.545 0 .906-.269 1.11-.807l2.063-6c.12-.385.379-.587.786-.587h8.298c.49 0 .795.202.925.587l2.063 6c.185.538.564.808 1.11.808h4.82c.231 0 .397-.077.518-.24a.675.675 0 00.074-.568l-9.223-25.23c-.204-.587-.592-.886-1.184-.886h-6.032a.524.524 0 00-.49.289zm3.46 6.144c.138 0 .231.087.286.25l2.961 8.577c.185.577.018.865-.518.865h-5.671c-.518 0-.676-.288-.472-.865l3.081-8.577c.037-.163.157-.25.333-.25zm22.081 14.991c0 .182-.092.451-.231.807l-1.591 3.923c-.204.51-.028.77.49.77h2.544c.37 0 .638-.049.796-.135.157-.087.305-.298.435-.635l10.536-25.384c.083-.202.083-.375-.028-.53-.12-.153-.305-.24-.564-.24h-2.544c-.379 0-.638.058-.786.154-.139.106-.287.308-.407.616l-5.023 12.423c-.093.183-.195.269-.306.269-.129 0-.249-.086-.333-.27l-5.004-12.422c-.111-.308-.259-.51-.417-.616-.175-.096-.444-.154-.841-.154h-5.579c-.268 0-.435.106-.462.289-.037.192.064.413.323.673.63.596 1.286 1.654 1.952 3.154l6.809 16.5c.139.356.231.625.231.808zm37.725-12.991c.158.327.37.52.648.548.277.048.509-.057.712-.327l1.656-2c.426-.48.49-.913.231-1.279-1.387-1.798-3.145-3.24-5.273-4.307C249.372.538 247.069 0 244.617 0c-4.329 0-7.826 1.308-10.499 3.923-2.683 2.606-4.015 5.971-4.015 10.077s1.36 7.433 4.107 10.067c2.729 2.625 6.226 3.933 10.472 3.933 2.535 0 4.848-.51 6.929-1.52 2.081-1 3.811-2.46 5.199-4.365.324-.48.231-.884-.259-1.23l-1.286-.895c-.37-.269-.795-.201-1.23.202a12.122 12.122 0 01-3.96 3.202c-1.554.789-3.145 1.183-4.764 1.183-2.312 0-4.338-1.01-6.041-3.02-1.72-2.009-2.581-4.518-2.581-7.557 0-3.039.861-5.577 2.591-7.577 1.72-1.99 3.774-3 6.142-3 3.599 0 6.3 1.846 8.113 5.548z" fill="#FCFCFC"/></svg>