<svg width="260" height="32" fill="none" xmlns="http://www.w3.org/2000/svg"><path d="M37.086.524h-6.99v30.434h6.99V.524z" fill="#FCFCFC"/><path fill-rule="evenodd" clip-rule="evenodd" d="M41.883 7.045h8.807v23.913h6.972V7.045h9.508v-.018L63.237.524H41.882v6.521zM96.131.524h-7.54L82.135 12.05 75.59.524h-7.986L78.34 18.57v12.387h6.971V18.571L96.131.524zm81.246 30.434v-23.9L173.408.524h-2.574v18.354L156.354.524h-5.576v30.434h6.543V12.706l14.462 18.252h5.594zm5.594-23.913h5.539v23.913h6.972V7.045h9.164V.524h-25.632l3.957 6.521zm26.526 23.913h18.437v-6.522h-11.466v-5.522h11.466v-6.521h-11.466V7.045h11.466V.524h-18.437v30.434zm35.696-9.117l6.35 9.117H260l-8.904-11.99a12.94 12.94 0 001.171-.686 8.236 8.236 0 001.366-1.138 9.368 9.368 0 001.274-1.668c.399-.656.725-1.41.967-2.288.242-.88.362-1.873.362-3.011a11.626 11.626 0 00-.586-3.89 7.672 7.672 0 00-1.933-3.077c-.882-.88-2.035-1.548-3.485-2.03-1.384-.463-3.075-.704-5.039-.74v6.557c.828.054 1.505.187 2 .446.622.307 1.033.723 1.293 1.222.241.5.362 1.03.344 1.602-.018.861-.223 1.548-.64 2.066-.429.518-.985.897-1.71 1.12a7.407 7.407 0 01-1.293.295v8.105l.006-.012zm-3.642 9.117V20.305h2.573l1.069 1.53V13.73c-.362.036-.724.054-1.123.054h-2.519V7.039c.465 0 .864-.018 1.19-.036.326-.018.64-.018.912-.036.296-.018.604-.018.948-.018.206.018.399.018.586.036V.434h-.241c-.157 0-.465 0-.949.018-.483 0-1.069 0-1.758.018-.67 0-1.395 0-2.174.018-.762 0-1.517.018-2.242.018-.725.018-1.383.018-1.951.018h-1.293v30.434h6.972zM22.793 23.093a10.57 10.57 0 01-2.76 1.325c-1.143.362-2.26.548-3.366.548-1.383-.018-2.622-.24-3.763-.686-1.124-.446-2.109-1.084-2.918-1.91a8.555 8.555 0 01-1.897-2.908c-.429-1.12-.659-2.354-.659-3.715 0-1.5.224-2.824.671-3.974.429-1.15 1.051-2.114 1.83-2.89a7.727 7.727 0 012.713-1.753 9.177 9.177 0 013.329-.602c.948 0 1.794.102 2.519.259a9.735 9.735 0 012 .686c.585.277 1.171.584 1.709.927l3.105-5.214c-.622-.603-1.396-1.15-2.332-1.62-.948-.482-2-.861-3.196-1.138C18.588.15 17.326.012 15.966 0c-2.108.018-4.005.277-5.696.789-1.692.536-3.178 1.27-4.47 2.234a13.279 13.279 0 00-3.208 3.39A15.036 15.036 0 00.658 10.75 18.84 18.84 0 000 15.74c.018 2.372.399 4.522 1.172 6.45.78 1.926 1.867 3.594 3.28 4.973 1.414 1.38 3.105 2.445 5.057 3.186 1.95.74 4.126 1.12 6.488 1.138a19.412 19.412 0 004.023-.464c1.275-.307 2.434-.722 3.45-1.24.93-.482 1.69-1.018 2.295-1.62l-2.984-5.077.012.006zm95.14 0a10.737 10.737 0 01-2.743 1.325c-1.153.362-2.277.548-3.364.548-1.384-.018-2.64-.24-3.782-.686a8.54 8.54 0 01-2.918-1.91 8.262 8.262 0 01-1.879-2.908c-.447-1.12-.67-2.354-.67-3.715 0-1.5.223-2.824.67-3.974.429-1.15 1.051-2.114 1.831-2.89a7.77 7.77 0 012.724-1.753 9.092 9.092 0 013.317-.602c.948 0 1.794.102 2.537.259a9.738 9.738 0 011.987.686c.605.277 1.172.584 1.71.927l3.105-5.214c-.622-.603-1.395-1.15-2.332-1.62a13.922 13.922 0 00-3.195-1.138C113.759.15 112.478.012 111.119 0c-2.109.018-4.005.277-5.697.789-1.691.536-3.178 1.27-4.47 2.234a13.021 13.021 0 00-3.196 3.39c-.882 1.325-1.516 2.752-1.951 4.336a18.84 18.84 0 00-.659 4.992c.018 2.372.399 4.522 1.172 6.45.78 1.926 1.867 3.594 3.28 4.973a14.632 14.632 0 005.075 3.186c1.933.74 4.108 1.12 6.488 1.138a19.328 19.328 0 004.005-.464 16.187 16.187 0 003.468-1.24c.912-.482 1.673-1.018 2.277-1.62l-2.984-5.077.006.006zm7.853 7.865h18.45v-6.522h-11.46v-5.522h11.46v-6.521h-11.46V7.045h11.46V.524h-18.45v30.434z" fill="#FCFCFC"/></svg>