<svg width="258" height="80" fill="none" xmlns="http://www.w3.org/2000/svg"><path d="M18.028 13.12h5.48c6.92 0 9.24 2.04 9.24 8.2 0 7.36-3.36 8.04-9.96 8.04-2.72 0-5.56-.08-8.68-.36h-.08V1.4c2.92-.16 5.8-.28 8.68-.28 2.84 0 5.68.12 8.48.28l-.32 3.36h-12.84v8.36zm0 12.76l5.48.04c4.24 0 5.2-.88 5.2-4.8 0-3.64-.84-4.88-5.2-4.88h-5.48v9.64zM59.052 29h-3.88V9.52c0-1.12.04-2.2.24-3.28h-.24c-.4 1.08-.96 2.24-1.44 3.12L42.132 29h-4.12V1.4h3.84v19.28c0 1.16-.08 2.24-.24 3.4h.2c.44-1.08.96-2.12 1.56-3.12L54.892 1.4h4.16V29zm6.734 0V1.4c3.04-.32 5.08-.36 9.64-.36 6.76 0 9 1.92 9 8.72 0 6.88-2.24 8.76-8.56 8.76-2.2 0-4.36-.16-6.04-.36V29h-4.04zm4.04-13.92h5.48c3.84-.04 5.08-1.12 5.08-5.32s-1.24-5.28-5.08-5.28c-2.12 0-4 0-5.48.04v10.56zm23.672-2.04h6.04c.36-9.16 3.24-12.16 10.44-12.16 8.16 0 11.08 3.48 11.08 14.32s-2.92 14.32-11.08 14.32c-7.48 0-10.28-3.24-10.44-13.24h-6.04V29h-4V1.4h4v11.64zm16.48 12.92c5.16 0 6.8-2.6 6.84-10.76-.04-8.16-1.68-10.76-6.84-10.76-4.96 0-6.52 2.6-6.52 10.76s1.56 10.76 6.52 10.76zM125.412 4.8l-.32-3.08c2.44-.44 4.68-.64 7.76-.64 6.76 0 9.12 1.52 9.12 7.2 0 3.96-1.36 6-4.64 6.32v.16c4.08.36 5.44 2.96 5.44 7.36 0 5.68-2.48 7.2-8.72 7.2-3.88 0-6.84-.28-9.64-.96l.36-2.88c2.24.28 5.24.56 8.6.56 3.96 0 5.32-.84 5.32-4.6 0-4.04-1.44-5.16-5.6-5.16h-4.72v-3.16h4.72c3.64 0 4.88-.92 4.88-4.36 0-3.6-1.36-4.44-5.36-4.44-3 0-5.32.28-7.2.48zM158.403.88c8.16 0 11.04 3.48 11.04 14.32s-2.88 14.32-11.04 14.32c-8.12 0-11-3.48-11-14.32s2.88-14.32 11-14.32zm0 3.56c-5.16 0-6.8 2.6-6.8 10.76s1.64 10.76 6.8 10.76c5.2 0 6.84-2.6 6.84-10.76s-1.64-10.76-6.84-10.76zm30.518 10.16v.16c4.12.36 5.52 2.96 5.52 7.36 0 5.68-2.52 7.2-8.88 7.2-4.76 0-7.2-.04-10.4-.32V1.4c2.84-.28 5.04-.32 9.2-.32 6.8 0 9.24 1.52 9.24 7.2 0 3.96-1.36 6-4.68 6.32zm-9.84-1.44h5.6c3.76 0 5.08-.88 5.08-4.4 0-3.48-1.44-4.28-5.6-4.28h-5.08v8.68zm0 12.72l5.88.04c4.12 0 5.44-.84 5.44-4.48 0-4.08-1.4-5.16-5.68-5.2h-5.64v9.64zm35.603-5.2h-11l-2.56 8.32h-4.08l8.64-26.52c.2-.68.76-1.08 1.48-1.08h4.08c.68 0 1.28.4 1.44 1.08l8.68 26.52h-4.12l-2.56-8.32zm-1.04-3.48l-3.24-10.48c-.2-.72-.48-1.52-.68-2.24h-1.08l-.64 2.24-3.24 10.48h8.88zm16.039-.56l-.04-.2c-3.76-.52-5.2-2.96-5.16-7.32 0-5.84 2.56-8.08 8.88-8.08 4.48 0 6.6.04 9.6.36V29h-4V17.92l-5.56.04c-1.8 0-2.92.76-3.48 2.76l-2.32 8.28h-4.24l2.44-8.44c.72-2.48 2.4-3.56 3.88-3.92zm9.28-2.12v-10c-1.48-.04-3.36-.04-5.52-.04-3.68 0-4.92 1.04-4.96 4.88 0 3.52 1.24 5.16 4.88 5.16h5.6zm-213.824 50v.16c5.24.52 6.56 5.32 9.64 14.32h-4.24c-3.04-8.44-4.2-12.8-8.68-12.76h-2.48c.16.96.24 1.92.24 2.84V79h-3.8v-9.92c0-.92.12-1.88.28-2.84h-2.68c-4.44-.04-5.6 4.32-8.68 12.76h-4.2c3.08-9 4.4-13.8 9.6-14.32v-.16C5.219 64 3.859 59 1.259 51.4h4.08c2.44 6.84 3.92 11.6 8 11.6h2.72c-.16-1-.24-2.04-.24-3.12V51.4h3.8v8.48c0 1.08-.04 2.12-.2 3.12h2.48c4.12 0 5.6-4.76 8.08-11.6h4.08c-2.6 7.6-4.04 12.6-8.92 13.12zM56.26 75.68l.16 3.08c-3.64.32-7.88.32-11.84.32-3.44 0-5.52-1.92-5.52-4.96V56.28c0-3.04 2.12-4.96 5.52-4.96 3.96 0 8.2 0 11.84.32l-.16 3.12h-11c-1.6 0-2.2.68-2.2 2.56v5.52H54.7v3.24H43.06v7.04c0 1.88.6 2.56 2.2 2.56h11zM83.683 51.4h4.36c1.04 0 1.6.6 1.64 1.64L90.803 79h-4l-.96-24.28h-.8l-5.6 19.64c-.24.92-.8 1.36-1.72 1.36h-3.48c-.92 0-1.52-.44-1.76-1.36l-5.64-19.64h-.76L65.163 79h-3.96l1.04-25.96c.04-1.04.6-1.64 1.64-1.64h4.44c.92 0 1.4.48 1.68 1.36l4.68 16.16c.36 1.28.64 2.48.92 3.72h.72c.28-1.28.56-2.44.96-3.76l4.64-16.12c.28-.88.8-1.36 1.76-1.36zm31.755 0V79h-4V66.68c-3.24 1.72-6.8 2.4-9.24 2.4-4.28 0-6.28-2.04-6.28-6.32V51.4h4v10.56c-.04 2.48 1 3.56 3.72 3.56 2.64 0 4.68-.48 7.8-1.92V51.4h4zm25.636 0l-7.32 20.76c-1.4 3.84-2.96 6.84-6.4 7.12-1.44.12-3.84-.2-5.2-.6l.44-2.92c5.32.36 5.56.2 7.08-3.6l.48-1.16h-1.48c-1.6 0-2.4-.6-2.92-2l-6.24-17.6h4.08l5.36 15.64c.16.36.44.6.84.6h1.52l5.68-16.24h4.08zm26.135 13.12v.16c5.24.52 6.56 5.32 9.64 14.32h-4.24c-3.04-8.44-4.2-12.8-8.68-12.76h-2.48c.16.96.24 1.92.24 2.84V79h-3.8v-9.92c0-.92.12-1.88.28-2.84h-2.68c-4.44-.04-5.6 4.32-8.68 12.76h-4.2c3.08-9 4.4-13.8 9.6-14.32v-.16c-4.92-.52-6.28-5.52-8.88-13.12h4.08c2.44 6.84 3.92 11.6 8 11.6h2.72c-.16-1-.24-2.04-.24-3.12V51.4h3.8v8.48c0 1.08-.04 2.12-.2 3.12h2.48c4.12 0 5.6-4.76 8.08-11.6h4.08c-2.6 7.6-4.04 12.6-8.92 13.12zM202.412 79h-3.88V59.52c0-1.12.04-2.2.24-3.28h-.24c-.4 1.08-.96 2.24-1.44 3.12L185.492 79h-4.12V51.4h3.84v19.28c0 1.16-.08 2.24-.24 3.4h.2c.44-1.08.96-2.12 1.56-3.12l11.52-19.56h4.16V79zm26.813-27.6V79h-4.04V66h-12.04v13h-4V51.4h4v11.16h12.04V51.4h4.04zm21.357 19.28h-11l-2.56 8.32h-4.08l8.64-26.52c.2-.68.76-1.08 1.48-1.08h4.08c.68 0 1.28.4 1.44 1.08l8.68 26.52h-4.12l-2.56-8.32zm-1.04-3.48l-3.24-10.48c-.2-.72-.48-1.52-.68-2.24h-1.08l-.64 2.24-3.24 10.48h8.88z" fill="#fff"/></svg>