<svg width="142" height="73" fill="none" xmlns="http://www.w3.org/2000/svg"><g clip-path="url(#clip0_3831_374)" fill="#282828"><path d="M10.62 54.886c3.399 0 5.505-2.034 6.401-5.098l3.05.582c-1.008 4.078-4.307 6.945-9.462 6.945-6.913 0-10.474-5.092-10.474-11.373s3.549-11.374 10.474-11.374c5.155 0 8.49 2.762 9.461 6.992l-3.049.583c-.658-3.03-2.7-5.122-6.401-5.122-4.713 0-7.32 3.88-7.32 8.944 0 5.064 2.293 8.92 7.32 8.92zm13.553 1.969v-21.84h2.985v9.405h11.69v-9.403h2.99v21.838h-2.99v-9.859h-11.69v9.859h-2.985zm22.692 0v-21.84h2.986v21.84h-2.986zm17.537-1.97c3.398 0 5.504-2.033 6.401-5.097l3.05.582c-1.008 4.078-4.307 6.945-9.462 6.945-6.913 0-10.474-5.092-10.474-11.373s3.549-11.374 10.474-11.374c5.155 0 8.49 2.762 9.461 6.992l-3.049.583c-.657-3.03-2.7-5.122-6.401-5.122-4.713 0-7.32 3.88-7.32 8.944 0 5.064 2.293 8.92 7.32 8.92zm22.257-19.868l8.728 21.838h-3.24l-2.043-5.308H79.921l-2.071 5.308H74.8l8.8-21.838h3.06zM80.94 49h8.205l-4.003-10.674L80.94 49zm25.964 5.885c2.17 0 5.184-.822 6.348-2.46v-4.078h-6.692v-2.563h9.584v7.673c-1.6 2.185-5.406 3.851-9.31 3.851-6.913 0-11.096-5.092-11.096-11.373s3.87-11.373 10.782-11.373c5.156 0 8.362 2.33 9.31 6.52l-2.985.699c-1.036-3.548-3.236-4.79-6.401-4.79-4.713 0-7.564 3.88-7.564 8.944 0 5.063 2.997 8.95 8.024 8.95zm23.485-20.323c6.878 0 10.748 5.098 10.748 11.373 0 6.275-3.87 11.39-10.748 11.39-6.877 0-10.782-5.092-10.782-11.373s3.864-11.39 10.782-11.39zm0 20.323c4.655 0 7.605-3.887 7.605-8.95 0-5.063-2.909-8.944-7.605-8.944-4.696 0-7.64 3.88-7.64 8.944 0 5.063 2.607 8.95 7.64 8.95zM5.318 71.893v.693H.851v-6.048H5.18v.693H1.63v1.871h2.863v.693H1.63v2.098h3.688zm5.144-2.057h-.326l-1.61 2.739h-.857l1.868-3.187-1.594-2.85h.844l1.362 2.441h.32l1.356-2.44h.838l-1.612 2.813 1.856 3.223h-.879l-1.565-2.739zm10.12 1.025a2.332 2.332 0 01-2.468 1.825c-1.856 0-2.874-1.335-2.874-3.129 0-1.795 1.035-3.13 2.91-3.13a2.255 2.255 0 012.39 1.69h-.86a1.456 1.456 0 00-1.56-.996c-1.443 0-2.09 1.165-2.09 2.435s.635 2.436 2.084 2.436a1.546 1.546 0 001.635-1.13h.832zm7.25.997v.717h-4.277v-6.037h.78v5.32h3.497zm7.774-5.32v3.88c0 1.428-.856 2.267-2.45 2.267-1.594 0-2.45-.839-2.45-2.267v-3.88h.785v3.875a1.668 1.668 0 001.665 1.666 1.663 1.663 0 001.664-1.666v-3.875h.786zm6.231 2.657c.932.198 1.56.664 1.56 1.695 0 1.032-.774 1.795-2.327 1.795-1.455 0-2.41-.746-2.502-1.795h.79c.14.822.891 1.102 1.747 1.102.855 0 1.524-.39 1.524-1.083 0-.694-.448-.899-1.053-1.032-.314-.064-.925-.175-1.234-.245-.902-.175-1.507-.653-1.507-1.532 0-.88.785-1.672 2.187-1.672 1.293 0 2.12.657 2.259 1.631h-.815c-.151-.583-.582-.938-1.484-.938-.75 0-1.373.332-1.373.962 0 .628.529.775 1.053.879.256.046.838.163 1.175.232v.001zm5.447-2.657v6.037h-.785v-6.037h.785zm2.764 0h.826l1.698 5.244h.438l1.698-5.244h.815l-1.99 6.037h-1.5l-1.985-6.037zm12.655 5.355v.693h-4.475v-6.048h4.335v.693h-3.549v1.871h2.851v.693h-2.852v2.098h3.69zm9.876-5.355c1.315 0 2.048.653 2.048 1.748a1.54 1.54 0 01-.949 1.544l.99 2.733h-.81l-.93-2.552a5.343 5.343 0 01-.507 0h-1.826v2.529h-.78v-6l2.764-.002zm-.117 2.832c1.007 0 1.373-.407 1.373-1.073 0-.664-.366-1.082-1.373-1.082h-1.867v2.155h1.867zm9.77 2.523v.693h-4.476v-6.048h4.335v.693h-3.549v1.871h2.857v.693h-2.857v2.098h3.69zm5.86-2.698c.93.198 1.558.664 1.558 1.695 0 1.032-.773 1.795-2.327 1.795-1.455 0-2.409-.746-2.502-1.795h.792c.14.822.89 1.102 1.746 1.102.854 0 1.524-.39 1.524-1.083 0-.694-.442-.899-1.053-1.032-.314-.064-.926-.175-1.228-.245-.908-.175-1.513-.653-1.513-1.532 0-.88.786-1.672 2.188-1.672 1.291 0 2.118.657 2.257 1.631h-.791c-.145-.583-.582-.938-1.484-.938-.744 0-1.373.332-1.373.962 0 .628.53.775 1.053.879.245.046.832.163 1.153.232v.001zm5.445-2.657v6.037h-.785v-6.037h.785zm5.708 0c1.909 0 2.881 1.2 2.881 3.018 0 1.819-.972 3.019-2.881 3.019h-2.327v-6.037h2.327zm0 5.343c1.513 0 2.084-1.066 2.084-2.33 0-1.265-.583-2.33-2.084-2.33h-1.541v4.66h1.54zm10.364.012v.693h-4.468v-6.048h4.329v.693h-3.544v1.871h2.857v.693h-2.857v2.098h3.683zm8.047-5.355v6.037h-1.239l-2.91-5.046h-.192v5.046h-.768v-6.037h1.239l2.91 5.046h.192v-5.046h.768zm8.356 4.323a2.332 2.332 0 01-2.468 1.824c-1.856 0-2.874-1.334-2.874-3.129 0-1.794 1.036-3.128 2.909-3.128a2.25 2.25 0 012.386 1.689h-.85a1.462 1.462 0 00-1.559-.996c-1.449 0-2.095 1.165-2.095 2.435s.64 2.436 2.083 2.436a1.554 1.554 0 001.641-1.13h.827zm7.425 1.032v.693h-4.47v-6.048h4.336v.693h-3.55v1.871h2.857v.693h-2.839v2.098h3.666zm6.139-2.698c.931.204 1.559.664 1.559 1.695 0 1.032-.774 1.795-2.328 1.795-1.454 0-2.403-.746-2.496-1.795h.792c.139.822.89 1.102 1.745 1.102.855 0 1.53-.39 1.53-1.083 0-.694-.447-.899-1.059-1.032-.314-.064-.919-.175-1.227-.245-.908-.175-1.508-.653-1.508-1.532 0-.88.786-1.672 2.188-1.672 1.292 0 2.118.657 2.258 1.631h-.791c-.151-.583-.582-.938-1.484-.938-.75 0-1.379.332-1.379.962 0 .628.535.775 1.059.879.239.046.82.163 1.141.232v.001zm-25.644-48.342h-86.77v2.161h86.77v-2.16zm-2.403-16.21l-2.397.962v13.203h4.795V5.605l-2.398-.961zm-81.968 0l-2.398.985v13.18h4.794V5.628l-2.396-.984z"/><path d="M111.528 4.644l-2.397.984v13.18h4.795V5.628l-2.398-.984zM54.674 0l-2.398.99v17.817h4.795V.99L54.674 0zm31.74 0l-2.397.99v17.817h4.8V.99L86.415 0zM42.117 8.646l-8.897-.64v10.802h17.795V7.87l-8.898.775zm56.802 0l-8.896-.64v10.802h17.794V7.87l-8.898.775zM70.546 4.86L58.34 3.985v14.823h24.42V3.805L70.546 4.859z"/></g><defs><clipPath id="clip0_3831_374"><path fill="#fff" transform="translate(.135)" d="M0 0h141v73H0z"/></clipPath></defs></svg>