<?xml version="1.0" encoding="UTF-8"?>
<!DOCTYPE svg PUBLIC "-//W3C//DTD SVG 1.1//EN" "http://www.w3.org/Graphics/SVG/1.1/DTD/svg11.dtd">
<!-- Creator: CorelDRAW -->
<svg xmlns="http://www.w3.org/2000/svg" xml:space="preserve" width="100%" height="auto" version="1.1" style="shape-rendering:geometricPrecision; text-rendering:geometricPrecision; image-rendering:optimizeQuality; fill-rule:evenodd; clip-rule:evenodd"
viewBox="0 0 29700 21000"
 xmlns:xlink="http://www.w3.org/1999/xlink"
 xmlns:xodm="http://www.corel.com/coreldraw/odm/2003">
 <defs>
  <style type="text/css">
   <![CDATA[
    .fil1 {fill:black}
    .fil0 {fill:red}
   ]]>
  </style>
 </defs>
 <g id="Слой_x0020_1">
  <metadata id="CorelCorpID_0Corel-Layer"/>
  <g id="_2251702369776">
   <path class="fil0" d="M8176.49 8453.59c205.82,-7.32 378.63,153.61 385.95,359.44 7.32,205.84 -153.62,378.64 -359.44,385.96 -205.84,7.32 -378.63,-153.61 -385.95,-359.45 -7.32,-205.83 153.6,-378.63 359.44,-385.95z"/>
   <polygon class="fil1" points="21502.14,10723.6 21809.56,10723.6 21903.35,10723.6 21936.76,10723.6 21912.07,10746.16 21842.78,10809.47 21321.28,11285.24 21890.99,12137.23 21928.78,12193.81 21942.25,12213.99 21918.02,12213.99 21850.01,12213.99 21558.77,12213.99 21539.18,12213.99 21532.2,12213.99 21528.34,12208.08 21517.54,12191.58 21072.07,11512.05 20912.48,11659.81 20912.48,12164.58 20912.48,12201.02 20912.48,12213.99 20899.49,12213.99 20863.02,12213.99 20639.19,12213.99 20602.73,12213.99 20589.78,12213.99 20589.78,12201.02 20589.78,12164.58 20589.78,10244.46 20589.78,10207.98 20589.78,10195 20602.73,10195 20639.19,10195 20863.02,10195 20899.49,10195 20912.48,10195 20912.48,10207.98 20912.48,10244.46 20912.48,11265.04 21468.16,10737.38 21478.81,10727.19 21482.54,10723.6 21487.74,10723.6 "/>
   <path class="fil1" d="M19925.69 10776.66c46.94,-29.35 99.01,-50.75 155.85,-64.75 56.67,-13.98 118.17,-20.63 184.41,-20.63l36.46 0 12.97 0 0 12.99 0 36.44 0 237.34 0 40.72 0 14.49 -14.41 -1.62 -40.53 -4.6c-10.46,-1.13 -18.3,-1.77 -26.11,-2.1l-0.06 0c-7.32,-0.25 -15.83,-0.3 -27.67,-0.3 -84.54,0 -151.3,15.78 -203.7,43.56 -51.94,27.49 -90.08,67.12 -117.66,114.98 -29.13,50.72 -47.71,111.53 -58.95,178.21 -11.27,67.12 -15.23,140.36 -15.23,215.32l0 587.87 0 36.44 0 12.97 -12.96 0 -36.44 0 -229.3 0 -36.43 0 -12.97 0 0 -12.97 0 -36.44 0 -1391.54 0 -36.45 0 -12.99 12.97 0 36.43 0 218.51 0 36.42 0 12.97 0 0 12.99 0 36.45 0 116.24c14.26,-17.74 29.28,-34.26 45.08,-49.53 23.07,-22.3 47.86,-41.94 74.21,-58.98l0 -0.27 6.14 -3.84z"/>
   <path class="fil1" d="M19185.46 11894.63l0 289.38 0 8.86 -8.26 3.19 -23.31 9.11 -0.05 0c-12.98,5.02 -26.63,9.41 -40.41,13.18l0 0.07c-13.92,3.77 -28.38,6.95 -42.89,9.44 -15.23,2.58 -30.49,4.57 -45.27,5.8 -15.41,1.3 -30.79,1.98 -45.62,1.98 -38.48,0 -73.11,-5.8 -103.58,-16.87 -31.12,-11.37 -57.92,-28.46 -79.85,-50.67 -13.68,-13.82 -25.43,-29.64 -35.09,-47.28l0 -0.05c-6.35,-11.59 -11.85,-24.02 -16.39,-37.17 -24.04,21.39 -48.58,40.63 -73.86,57.65 -30.74,20.73 -62.89,38.52 -96.52,53.33 -44.17,19.47 -91.02,33.83 -141.01,43.22 -49.9,9.41 -103.1,13.97 -160.25,13.97 -73.93,0 -141.29,-10.31 -200.82,-29.89l-0.02 0c-60.86,-20.02 -113.82,-49.86 -157.31,-88.43 -44.27,-39.18 -78.57,-87.04 -101.71,-142.28 -22.62,-54.08 -34.54,-115.37 -34.54,-182.6 0,-69.16 11.72,-131.58 35.06,-186.97 23.47,-55.64 58.6,-104.15 105.26,-145.21 45.1,-39.65 101.04,-72.2 167.57,-97.42 65.85,-24.97 142.29,-42.89 229.05,-53.51l0.83 -0.1 0.43 0 92.88 -10.94c116.62,-13.37 195.63,-22.53 243.91,-44.59 44.92,-20.46 63.5,-53.86 63.5,-116.53 0,-28.96 -5.22,-54.48 -15.36,-76.17 -10.12,-21.58 -25.33,-39.8 -45.2,-54.18 -22.24,-16.11 -50.57,-28.48 -84.65,-36.76 -34.36,-8.41 -74.79,-12.68 -120.92,-12.68 -48.11,0 -90.07,4.19 -125.88,13.13 -32.3,8.08 -59.68,20.07 -82.09,36.31l-5.77 4.54c-22.72,17.97 -40.94,41.89 -54.56,72.01 -13.86,30.64 -23.07,67.83 -27.78,111.98l-322.42 0 0.15 -5.55c2.24,-80.99 18.77,-154.04 48.39,-218.06 30.11,-65.13 73.78,-120.92 129.75,-166.27 54.83,-44.42 121.36,-78.65 198.23,-101.56 75.39,-22.49 160.95,-34.21 255.43,-34.21 48.57,0 95.67,3.29 140.5,9.54 45.27,6.3 88.36,15.81 128.41,28.11 40.71,12.47 78.51,28.23 112.46,46.83 33.78,18.52 63.85,39.97 89.27,63.94l0.3 0.28 0.5 0.47c54.74,53.23 82.17,117.78 95.8,185.54 12.49,62.37 13.35,127.12 13.35,188.23l0.12 0 0 13 0 9.76c0,96.39 -2.61,198.54 -5.24,300.45l-0.25 10.79 -0.08 2.61c-2.61,99.71 -5.27,190.91 -5.27,297.35 -2.74,114.84 99.33,107.06 151.08,51.9zm-468.27 -199.24l0 -170.16c-30.62,12.4 -62.59,21.01 -94.82,27.38 -37.99,7.58 -76.89,12.2 -114.56,16.62l-42.69 5.27 -14.53 1.8 0 -0.02 -6.58 0.83 -0.02 0c-74.16,9.33 -158.29,20.02 -222.74,50.34 -61.91,29.14 -106.4,77.32 -106.4,162.27 0,28.11 5.04,53.46 14.53,75.49 9.56,22.14 23.84,41.19 42.13,56.52 19.38,16.14 43.87,28.86 72.73,37.45l0 0.02c28.69,8.48 61.92,13 98.96,13 48.61,0 96.8,-8.33 141.49,-23.29 46.23,-15.43 89.02,-38.02 125.03,-65.75 33.56,-25.9 61.26,-56.37 80.06,-89.5 17.49,-30.74 27.41,-64.04 27.41,-98.27z"/>
   <path class="fil1" d="M14195.93 11755.99c-18.48,76.82 -44.9,145.21 -79.01,204.94 -37.42,65.5 -84.12,120.72 -139.66,165.14 -55.54,44.47 -119.68,78.02 -191.94,100.31 -71.97,22.18 -152.01,33.4 -239.72,33.4 -108.64,0 -206.92,-18.02 -293.23,-52.6 -87.68,-35.14 -163.15,-87.56 -224.74,-155.47 -61,-67.31 -108.06,-149.58 -139.61,-245.15 -30.94,-93.83 -47.13,-200.64 -47.13,-318.87 0,-116.95 16.99,-224.94 48.66,-321.16 32.58,-98.93 80.79,-185.67 142.2,-257.24 62.21,-72.58 137.86,-129.67 224.29,-168.27 84.32,-37.65 178.94,-57.87 281.43,-57.87 109.29,0 203.91,19.55 284.95,54.76 87.26,37.89 158.63,93.91 215.55,163.05 60.83,73.91 104.88,162.57 134.06,259.9 31.45,104.77 45.96,219.84 45.96,337.62l0 32.32 0 36.44 0 12.98 -13 0 -36.42 0 -998.91 0c2.61,57.42 12.24,109.32 28.13,155.07 17.29,49.67 42.14,92.23 73.68,126.74l-0.05 0c32.7,35.73 73.31,63.42 120.79,82.04 47.11,18.47 101.24,28.13 161.4,28.13 44.64,0 83.99,-4.62 118.5,-14.33 31.87,-8.98 59.83,-22.39 84.08,-40.48l0 -0.03 4.96 -3.91c26,-20.48 48.67,-47.18 68.42,-80.48 13.32,-22.54 25.42,-48.17 36.36,-76.98l330 0zm-1016.29 -460.69l696.03 0c-7.3,-45.3 -19.17,-86.68 -35.01,-123.35l0.08 -0.03c-17.62,-40.65 -40.33,-75.81 -67.54,-104.72 -29.54,-31.32 -65.07,-55.59 -105.66,-71.9 -40.15,-16.09 -85.6,-24.55 -135.44,-24.55 -48.64,0 -93.61,8.66 -133.94,25.07 -40.96,16.64 -77.42,41.44 -108.24,73.31l-0.48 0.5 -0.3 0.2c-27.83,28.96 -51.6,64 -70.6,104.4 -16.91,36.12 -30.06,76.7 -38.9,121.07z"/>
   <polygon class="fil1" points="10512.07,12164.58 10512.07,10244.46 10512.07,10207.98 10512.07,10195 10525.02,10195 10561.48,10195 10912.1,10195 10937.17,10195 10946.13,10195 10949.3,10203.43 10958.26,10227.03 11528.82,11729.52 12079.3,10227.46 12079.35,10227.46 12088,10203.61 12091.14,10195 12100.16,10195 12125.61,10195 12478.94,10195 12515.35,10195 12528.34,10195 12528.34,10207.98 12528.34,10244.46 12528.34,12164.58 12528.34,12201.02 12528.34,12213.99 12515.35,12213.99 12478.94,12213.99 12238.9,12213.99 12202.49,12213.99 12189.5,12213.99 12189.5,12201.02 12189.5,12164.58 12189.5,10834.37 11683.64,12181.73 11683.64,12181.78 11674.65,12205.57 11671.48,12213.99 11662.52,12213.99 11637.46,12213.99 11416.38,12213.99 11391.32,12213.99 11382.46,12213.99 11379.21,12205.61 11370.22,12182.11 10853.66,10830.34 10853.66,12164.58 10853.66,12201.02 10853.66,12213.99 10840.67,12213.99 10804.23,12213.99 10561.48,12213.99 10525.02,12213.99 10512.07,12213.99 10512.07,12201.02 "/>
   <path class="fil1" d="M15782.16 12205.89l0 13.01 -13.01 0 -580.22 0c-485.79,0 -704.82,-386.48 -704.12,-770.77 -0.7,-384.24 218.33,-779.77 704.12,-779.77l259.41 0 0 -432.14 0 -36.43 0 -12.96 12.99 0 36.43 0 234.95 0 36.44 0 13.01 0 0 12.96 0 36.43c0,656.57 0,1313.12 0,1969.67zm-950.03 -757.76c-9.33,227.8 104.4,456.84 408.74,453.42l207.47 0 0 -453.42 0 -453.4 -207.47 0c-304.34,-3.43 -418.07,225.61 -408.74,453.4z"/>
   <path class="fil1" d="M16131.77 10199.82l0 -12.99 12.99 0 726.57 0c485.77,0 730.25,386.48 729.52,770.74 0.73,384.26 -243.75,770.73 -729.52,770.73l-405.74 0 0 441.18 0 36.43 0 12.97 -12.99 0 -36.43 0 -234.97 0 -36.44 0 -31.52 0 18.53 -12.97 0 -36.43c0,-656.55 0,-1313.11 0,-1969.66zm1121.75 757.75c9.37,-227.79 -129.79,-456.85 -434.14,-453.42l-353.79 0 0 453.42 0 453.41 353.79 0c304.35,3.43 443.51,-225.63 434.14,-453.41z"/>
   <path class="fil1" d="M9521.8 9074.76l0 467.95 -963.1 413.72c-224.18,96.29 -445.89,210.51 -621.72,386.77 -99.09,-57.93 -165.08,-127.9 -179.23,-219.95l0 -4.26c0,-256.85 327.19,-442.06 701.81,-599.06l1062.24 -445.17z"/>
   <path class="fil1" d="M7757.76 10119l0 454.31c0,302.17 431.83,333.59 885.07,469.2 428.54,122.65 846.75,210.67 885.07,459.91l0 -454.31c0,-302.17 -431.83,-333.57 -885.07,-469.24 -428.54,-122.64 -846.73,-210.66 -885.07,-459.87z"/>
   <path class="fil1" d="M7763.85 12546.66l0 -467.95 963.1 -413.72c224.19,-96.3 445.89,-210.51 621.72,-386.77 99.1,57.92 165.08,127.9 179.23,219.94l0 4.26c0,256.86 -327.19,442.06 -701.81,599.06l-1062.24 445.18z"/>
  </g>
 </g>
</svg>
