<svg xmlns="http://www.w3.org/2000/svg" height="auto" viewBox="0 0 29700 21000" shape-rendering="geometricPrecision" text-rendering="geometricPrecision" image-rendering="optimizeQuality" fill-rule="evenodd" clip-rule="evenodd"><defs><style>.fil1{fill:#000}</style></defs><g id="Слой_x0020_1"><g id="_2251702369776"><path d="M8176.49 8453.59c205.82-7.32 378.63 153.61 385.95 359.44 7.32 205.84-153.62 378.64-359.44 385.96-205.84 7.32-378.63-153.61-385.95-359.45-7.32-205.83 153.6-378.63 359.44-385.95z" fill="red"/><path class="fil1" d="M21502.14 10723.6h434.62l-24.69 22.56-69.29 63.31-521.5 475.77 569.71 851.99 37.79 56.58 13.47 20.18h-410.05l-3.86-5.91-10.8-16.5-445.47-679.53-159.59 147.76v554.18h-322.7V10195h322.7v1070.04l555.68-527.66 10.65-10.19 3.73-3.59h5.2zm-1576.45 53.06c46.94-29.35 99.01-50.75 155.85-64.75 56.67-13.98 118.17-20.63 184.41-20.63h49.43v341.98l-14.41-1.62-40.53-4.6c-10.46-1.13-18.3-1.77-26.11-2.1h-.06c-7.32-.25-15.83-.3-27.67-.3-84.54 0-151.3 15.78-203.7 43.56-51.94 27.49-90.08 67.12-117.66 114.98-29.13 50.72-47.71 111.53-58.95 178.21-11.27 67.12-15.23 140.36-15.23 215.32v637.28h-328.1V10723.6h317.3v165.68c14.26-17.74 29.28-34.26 45.08-49.53 23.07-22.3 47.86-41.94 74.21-58.98v-.27l6.14-3.84zm-740.23 1117.97v298.24l-8.26 3.19-23.31 9.11h-.05c-12.98 5.02-26.63 9.41-40.41 13.18v.07c-13.92 3.77-28.38 6.95-42.89 9.44-15.23 2.58-30.49 4.57-45.27 5.8-15.41 1.3-30.79 1.98-45.62 1.98-38.48 0-73.11-5.8-103.58-16.87-31.12-11.37-57.92-28.46-79.85-50.67-13.68-13.82-25.43-29.64-35.09-47.28v-.05c-6.35-11.59-11.85-24.02-16.39-37.17-24.04 21.39-48.58 40.63-73.86 57.65-30.74 20.73-62.89 38.52-96.52 53.33-44.17 19.47-91.02 33.83-141.01 43.22-49.9 9.41-103.1 13.97-160.25 13.97-73.93 0-141.29-10.31-200.82-29.89h-.02c-60.86-20.02-113.82-49.86-157.31-88.43-44.27-39.18-78.57-87.04-101.71-142.28-22.62-54.08-34.54-115.37-34.54-182.6 0-69.16 11.72-131.58 35.06-186.97 23.47-55.64 58.6-104.15 105.26-145.21 45.1-39.65 101.04-72.2 167.57-97.42 65.85-24.97 142.29-42.89 229.05-53.51l.83-.1h.43l92.88-10.94c116.62-13.37 195.63-22.53 243.91-44.59 44.92-20.46 63.5-53.86 63.5-116.53 0-28.96-5.22-54.48-15.36-76.17-10.12-21.58-25.33-39.8-45.2-54.18-22.24-16.11-50.57-28.48-84.65-36.76-34.36-8.41-74.79-12.68-120.92-12.68-48.11 0-90.07 4.19-125.88 13.13-32.3 8.08-59.68 20.07-82.09 36.31l-5.77 4.54c-22.72 17.97-40.94 41.89-54.56 72.01-13.86 30.64-23.07 67.83-27.78 111.98h-322.42l.15-5.55c2.24-80.99 18.77-154.04 48.39-218.06 30.11-65.13 73.78-120.92 129.75-166.27 54.83-44.42 121.36-78.65 198.23-101.56 75.39-22.49 160.95-34.21 255.43-34.21 48.57 0 95.67 3.29 140.5 9.54 45.27 6.3 88.36 15.81 128.41 28.11 40.71 12.47 78.51 28.23 112.46 46.83 33.78 18.52 63.85 39.97 89.27 63.94l.3.28.5.47c54.74 53.23 82.17 117.78 95.8 185.54 12.49 62.37 13.35 127.12 13.35 188.23h.12v22.76c0 96.39-2.61 198.54-5.24 300.45l-.25 10.79-.08 2.61c-2.61 99.71-5.27 190.91-5.27 297.35-2.74 114.84 99.33 107.06 151.08 51.9zm-468.27-199.24v-170.16c-30.62 12.4-62.59 21.01-94.82 27.38-37.99 7.58-76.89 12.2-114.56 16.62l-42.69 5.27-14.53 1.8v-.02l-6.58.83h-.02c-74.16 9.33-158.29 20.02-222.74 50.34-61.91 29.14-106.4 77.32-106.4 162.27 0 28.11 5.04 53.46 14.53 75.49 9.56 22.14 23.84 41.19 42.13 56.52 19.38 16.14 43.87 28.86 72.73 37.45v.02c28.69 8.48 61.92 13 98.96 13 48.61 0 96.8-8.33 141.49-23.29 46.23-15.43 89.02-38.02 125.03-65.75 33.56-25.9 61.26-56.37 80.06-89.5 17.49-30.74 27.41-64.04 27.41-98.27zm-4521.26 60.6c-18.48 76.82-44.9 145.21-79.01 204.94-37.42 65.5-84.12 120.72-139.66 165.14-55.54 44.47-119.68 78.02-191.94 100.31-71.97 22.18-152.01 33.4-239.72 33.4-108.64 0-206.92-18.02-293.23-52.6-87.68-35.14-163.15-87.56-224.74-155.47-61-67.31-108.06-149.58-139.61-245.15-30.94-93.83-47.13-200.64-47.13-318.87 0-116.95 16.99-224.94 48.66-321.16 32.58-98.93 80.79-185.67 142.2-257.24 62.21-72.58 137.86-129.67 224.29-168.27 84.32-37.65 178.94-57.87 281.43-57.87 109.29 0 203.91 19.55 284.95 54.76 87.26 37.89 158.63 93.91 215.55 163.05 60.83 73.91 104.88 162.57 134.06 259.9 31.45 104.77 45.96 219.84 45.96 337.62v81.74h-1048.33c2.61 57.42 12.24 109.32 28.13 155.07 17.29 49.67 42.14 92.23 73.68 126.74h-.05c32.7 35.73 73.31 63.42 120.79 82.04 47.11 18.47 101.24 28.13 161.4 28.13 44.64 0 83.99-4.62 118.5-14.33 31.87-8.98 59.83-22.39 84.08-40.48v-.03l4.96-3.91c26-20.48 48.67-47.18 68.42-80.48 13.32-22.54 25.42-48.17 36.36-76.98h330zm-1016.29-460.69h696.03c-7.3-45.3-19.17-86.68-35.01-123.35l.08-.03c-17.62-40.65-40.33-75.81-67.54-104.72-29.54-31.32-65.07-55.59-105.66-71.9-40.15-16.09-85.6-24.55-135.44-24.55-48.64 0-93.61 8.66-133.94 25.07-40.96 16.64-77.42 41.44-108.24 73.31l-.48.5-.3.2c-27.83 28.96-51.6 64-70.6 104.4-16.91 36.12-30.06 76.7-38.9 121.07zm-2667.57 869.28V10195h434.06l3.17 8.43 8.96 23.6 570.56 1502.49 550.48-1502.06h.05l8.65-23.85 3.14-8.61h437.2v2018.99h-338.84v-1379.62l-505.86 1347.36v.05l-8.99 23.79-3.17 8.42h-289.02l-3.25-8.38-8.99-23.5-516.56-1351.77v1383.65h-341.59v-12.97zm5270.09 41.31v13.01h-593.23c-485.79 0-704.82-386.48-704.12-770.77-.7-384.24 218.33-779.77 704.12-779.77h259.41v-481.53h333.82v2019.06zm-950.03-757.76c-9.33 227.8 104.4 456.84 408.74 453.42h207.47v-906.82h-207.47c-304.34-3.43-418.07 225.61-408.74 453.4zm1299.64-1248.31v-12.99h739.56c485.77 0 730.25 386.48 729.52 770.74.73 384.26-243.75 770.73-729.52 770.73h-405.74v490.58h-352.35l18.53-12.97v-2006.09zm1121.75 757.75c9.37-227.79-129.79-456.85-434.14-453.42h-353.79v906.83h353.79c304.35 3.43 443.51-225.63 434.14-453.41zM9521.8 9074.76v467.95l-963.1 413.72c-224.18 96.29-445.89 210.51-621.72 386.77-99.09-57.93-165.08-127.9-179.23-219.95v-4.26c0-256.85 327.19-442.06 701.81-599.06l1062.24-445.17z"/><path class="fil1" d="M7757.76 10119v454.31c0 302.17 431.83 333.59 885.07 469.2 428.54 122.65 846.75 210.67 885.07 459.91v-454.31c0-302.17-431.83-333.57-885.07-469.24-428.54-122.64-846.73-210.66-885.07-459.87z"/><path class="fil1" d="M7763.85 12546.66v-467.95l963.1-413.72c224.19-96.3 445.89-210.51 621.72-386.77 99.1 57.92 165.08 127.9 179.23 219.94v4.26c0 256.86-327.19 442.06-701.81 599.06l-1062.24 445.18z"/></g></g></svg>